<svg width="116" height="117" viewBox="0 0 116 117" fill="none" xmlns="http://www.w3.org/2000/svg">
<g filter="url(#filter0_i_155_232)">
<path d="M24.0982 24.0712C24.1133 24.0712 24.1284 24.0712 24.1439 24.0711C24.1942 24.0711 24.2446 24.0711 24.2949 24.0711C24.3316 24.0711 24.3683 24.0711 24.4049 24.0711C24.4848 24.071 24.5647 24.071 24.6447 24.071C24.7643 24.071 24.8839 24.071 25.0035 24.0709C25.2074 24.0708 25.4113 24.0707 25.6152 24.0707C25.8219 24.0707 26.0285 24.0707 26.2351 24.0706C26.2482 24.0706 26.2612 24.0706 26.2747 24.0706C26.3278 24.0706 26.381 24.0706 26.4342 24.0705C27.0635 24.0703 27.6928 24.0702 28.322 24.0701C28.6355 24.0701 28.9489 24.07 29.2623 24.07C30.2678 24.0698 31.2733 24.0696 32.2788 24.0696C32.3269 24.0696 32.3749 24.0696 32.423 24.0696C32.5194 24.0696 32.6157 24.0696 32.7121 24.0696C32.8249 24.0696 32.9377 24.0696 33.0506 24.0696C33.0829 24.0696 33.1152 24.0696 33.1475 24.0696C34.1843 24.0695 35.2212 24.0693 36.2581 24.0689C37.0032 24.0687 37.7483 24.0685 38.4934 24.0684C38.5087 24.0684 38.5241 24.0684 38.5399 24.0684C38.8764 24.0684 39.213 24.0684 39.5496 24.0683C39.6701 24.0683 39.7905 24.0683 39.9109 24.0683C39.9409 24.0683 39.9709 24.0683 40.0008 24.0683C40.4779 24.0683 40.9549 24.0682 41.4319 24.068C41.9125 24.0678 42.3932 24.0677 42.8738 24.0678C42.9404 24.0678 43.0069 24.0678 43.0734 24.0678C43.0864 24.0678 43.0994 24.0678 43.1129 24.0678C43.3188 24.0679 43.5247 24.0678 43.7306 24.0676C43.9334 24.0674 44.1362 24.0674 44.339 24.0676C44.4577 24.0677 44.5763 24.0677 44.695 24.0675C44.7835 24.0673 44.8719 24.0674 44.9604 24.0676C44.9957 24.0676 45.031 24.0676 45.0663 24.0675C45.3889 24.0664 45.7108 24.0909 46.0275 24.1553C46.0459 24.159 46.0644 24.1627 46.0833 24.1666C47.0899 24.3743 47.9785 24.8927 48.7037 25.6197C48.7111 25.6271 48.7185 25.6345 48.7261 25.6421C48.7849 25.7017 48.8398 25.7643 48.894 25.8281C48.9018 25.8373 48.9097 25.8465 48.9178 25.856C49.0893 26.0586 49.2391 26.2751 49.3847 26.4972C49.4467 26.5915 49.5097 26.6851 49.5728 26.7787C49.5968 26.8143 49.6208 26.85 49.6448 26.8856C49.6509 26.8947 49.657 26.9038 49.6634 26.9132C49.7088 26.9806 49.7541 27.0481 49.7994 27.1156C49.806 27.1254 49.8126 27.1352 49.8194 27.1453C49.845 27.1836 49.8707 27.2218 49.8964 27.2601C49.9022 27.2688 49.9081 27.2776 49.9141 27.2866C49.9196 27.2948 49.9251 27.3031 49.9308 27.3116C49.9427 27.3293 49.9549 27.3468 49.9674 27.3641C50.0036 27.4152 50.0307 27.4633 50.0531 27.522C50.0907 27.6086 50.1337 27.677 50.2135 27.7293C50.3851 27.7814 50.5744 27.7668 50.7516 27.7641C50.8277 27.7633 50.9037 27.764 50.9798 27.7646C51.1137 27.7654 51.2475 27.7652 51.3813 27.7642C51.5817 27.7629 51.7821 27.7631 51.9825 27.7637C52.3239 27.7645 52.6654 27.7641 53.0069 27.763C53.3531 27.7618 53.6992 27.7613 54.0453 27.7615C54.0617 27.7615 54.0617 27.7615 54.0784 27.7615C54.1785 27.7616 54.2785 27.7616 54.3785 27.7617C54.6294 27.7619 54.8803 27.762 55.1311 27.762C55.1426 27.762 55.1541 27.762 55.166 27.762C55.7204 27.7621 56.2748 27.7611 56.8291 27.7601C57.6284 27.7587 58.4277 27.7577 59.227 27.7577C59.2646 27.7577 59.3022 27.7577 59.3398 27.7577C59.5666 27.7576 59.7933 27.7576 60.0201 27.7576C60.5838 27.7576 61.1475 27.7575 61.7112 27.7573C61.7305 27.7573 61.7305 27.7573 61.7501 27.7573C62.9988 27.757 64.2474 27.7556 65.4961 27.7542C65.9431 27.7536 66.3901 27.7531 66.8372 27.7526C66.8506 27.7526 66.864 27.7526 66.8779 27.7526C68.1537 27.7511 69.4294 27.7503 70.7052 27.7497C70.7592 27.7496 70.8133 27.7496 70.8673 27.7496C72.0105 27.749 73.1537 27.7485 74.2969 27.7481C74.6458 27.7479 74.9947 27.7478 75.3437 27.7476C75.3564 27.7476 75.3691 27.7476 75.3821 27.7476C75.4334 27.7476 75.4847 27.7476 75.5359 27.7475C75.6762 27.7475 75.8165 27.7474 75.9568 27.7474C77.1959 27.7469 78.435 27.7461 79.8583 27.7446C79.8704 27.7446 79.8825 27.7446 79.895 27.7446C79.9561 27.7445 80.0171 27.7445 80.0782 27.7444C80.4353 27.744 80.7924 27.7437 81.1495 27.7434C81.1727 27.7434 81.1959 27.7433 81.2191 27.7433C81.4359 27.7431 81.6526 27.743 81.8694 27.7428C81.9919 27.7427 82.1143 27.7426 82.2368 27.7425C82.2531 27.7425 82.2531 27.7425 82.2698 27.7425C82.6154 27.7422 82.961 27.7418 83.3065 27.7413C83.6565 27.7408 84.0064 27.7404 84.3564 27.7402C84.5553 27.7401 84.7542 27.7399 84.9531 27.7395C85.0854 27.7392 85.2177 27.7391 85.35 27.7391C85.4249 27.7391 85.4997 27.7391 85.5746 27.7388C85.9691 27.7375 86.3647 27.74 86.7517 27.828C86.7774 27.8337 86.7774 27.8337 86.8036 27.8394C87.3985 27.9731 87.9699 28.2159 88.4645 28.5776C88.4725 28.5834 88.4806 28.5893 88.4889 28.5953C88.8045 28.8271 89.1094 29.0991 89.349 29.4112C89.3609 29.4259 89.3729 29.4406 89.3851 29.4558C89.5606 29.673 89.7126 29.9093 89.842 30.1571C89.8467 30.166 89.8515 30.1749 89.8563 30.1841C90.129 30.7012 90.292 31.2716 90.3495 31.8536C90.3508 31.8665 90.3521 31.8795 90.3534 31.8928C90.3661 32.0381 90.366 32.1827 90.3657 32.3284C90.3656 32.3567 90.3657 32.3849 90.3657 32.4132C90.3657 32.4894 90.3656 32.5656 90.3655 32.6418C90.3654 32.7216 90.3654 32.8015 90.3654 32.8813C90.3653 33.0322 90.3652 33.1831 90.3651 33.3341C90.3649 33.506 90.3648 33.6779 90.3647 33.8499C90.3646 34.2033 90.3643 34.5567 90.364 34.9102C90.3759 34.9101 90.3759 34.9101 90.388 34.9101C90.5828 34.9095 90.7777 34.909 90.9725 34.9087C91.0668 34.9085 91.161 34.9083 91.2552 34.908C91.3465 34.9077 91.4378 34.9075 91.5291 34.9074C91.5636 34.9074 91.598 34.9073 91.6325 34.9071C91.9597 34.9056 92.2881 34.9177 92.6115 34.9714C92.621 34.973 92.6304 34.9745 92.6402 34.9761C93.6122 35.1357 94.5125 35.5844 95.236 36.2557C95.2605 36.2776 95.2849 36.2996 95.3094 36.3215C95.4065 36.4098 95.4992 36.5017 95.5842 36.602C95.6062 36.6279 95.6284 36.6535 95.6508 36.679C96.2357 37.3484 96.6169 38.1806 96.7911 39.0518C96.7962 39.0766 96.7962 39.0766 96.8014 39.1019C96.8875 39.5551 96.8808 40.0117 96.88 40.4711C96.8799 40.5632 96.88 40.6554 96.8801 40.7475C96.8803 40.9387 96.8802 41.1299 96.8801 41.3211C96.88 41.5157 96.8799 41.7103 96.88 41.9049C96.88 41.9234 96.88 41.9234 96.88 41.9424C96.88 42.0056 96.8801 42.0688 96.8801 42.132C96.8803 42.5927 96.8802 43.0534 96.8801 43.5141C96.8799 43.9809 96.8799 44.4477 96.88 44.9145C96.88 44.9292 96.88 44.944 96.88 44.9591C96.88 45.0942 96.88 45.2292 96.88 45.3643C96.8801 45.7029 96.8801 46.0415 96.8801 46.3801C96.8801 46.4034 96.8801 46.4034 96.8801 46.4271C96.8802 47.1915 96.8801 47.9559 96.88 48.7203C96.88 48.9893 96.8799 49.2584 96.8799 49.5274C96.8799 49.5441 96.8799 49.5608 96.8799 49.5781C96.8798 50.3533 96.8798 51.1285 96.8798 51.9038C96.8798 51.9714 96.8798 52.0391 96.8798 52.1067C96.8798 52.3957 96.8798 52.6846 96.8798 52.9735C96.8798 53.7339 96.8798 54.4943 96.8798 55.2547C96.8798 55.272 96.8798 55.2893 96.8798 55.3071C96.8798 56.428 96.8797 57.5489 96.8796 58.6698C96.8796 58.6877 96.8796 58.7056 96.8796 58.724C96.8795 59.3233 96.8794 59.9226 96.8794 60.5219C96.8793 61.07 96.8792 61.618 96.8792 62.166C96.8792 62.1932 96.8792 62.1932 96.8792 62.2209C96.879 63.9419 96.879 65.6628 96.8791 67.3838C96.8791 67.4749 96.8791 67.566 96.8791 67.6571C96.8791 67.6841 96.8791 67.6841 96.8791 67.7117C96.8791 67.7481 96.8791 67.7845 96.8791 67.8209C96.8791 67.8573 96.8791 67.8937 96.8791 67.9301C96.8791 68.3292 96.8791 68.7283 96.8791 69.1274C96.8791 69.1816 96.8792 69.2358 96.8792 69.29C96.8792 70.3923 96.8792 71.4947 96.8791 72.597C96.8791 72.623 96.8791 72.623 96.8791 72.6495C96.8791 73.4434 96.8791 74.2374 96.879 75.0314C96.879 75.1165 96.879 75.2016 96.879 75.2867C96.879 75.3119 96.879 75.3119 96.879 75.3376C96.879 75.4225 96.879 75.5074 96.879 75.5922C96.879 75.6261 96.879 75.66 96.879 75.6939C96.879 75.719 96.879 75.719 96.879 75.7447C96.879 75.8461 96.879 75.9475 96.8789 76.0489C96.8789 76.8073 96.8789 77.5657 96.8789 78.3241C96.8789 78.3408 96.8789 78.3575 96.8789 78.3747C96.8789 78.5599 96.8789 78.7451 96.8789 78.9303C96.8789 78.9973 96.8789 79.0643 96.8789 79.1314C96.8789 79.1562 96.8789 79.1562 96.8789 79.1815C96.8789 79.9449 96.8789 80.7083 96.8788 81.4717C96.8788 81.4872 96.8788 81.5026 96.8788 81.5186C96.8788 81.8565 96.8787 82.1944 96.8787 82.5324C96.8786 82.6671 96.8786 82.8019 96.8786 82.9367C96.8786 82.9514 96.8786 82.9661 96.8786 82.9812C96.8785 83.4475 96.8785 83.9137 96.8786 84.3799C96.8786 84.8391 96.8786 85.2982 96.8784 85.7573C96.8784 85.8202 96.8784 85.8831 96.8784 85.946C96.8783 85.9583 96.8783 85.9706 96.8783 85.9833C96.8783 86.1773 96.8783 86.3714 96.8784 86.5654C96.8785 86.7553 96.8784 86.9452 96.8783 87.1351C96.8782 87.2362 96.8782 87.3372 96.8783 87.4383C96.8784 87.5301 96.8784 87.622 96.8782 87.7138C96.8782 87.7466 96.8782 87.7794 96.8783 87.8122C96.8789 88.1007 96.8619 88.3862 96.8129 88.6707C96.8097 88.6892 96.8066 88.7077 96.8033 88.7268C96.6509 89.5936 96.2766 90.3876 95.729 91.0701C95.7171 91.0852 95.7052 91.1002 95.693 91.1157C95.5937 91.2383 95.4835 91.3502 95.3729 91.4623C95.3652 91.4701 95.3575 91.478 95.3495 91.486C95.2489 91.5883 95.1452 91.6825 95.033 91.7721C95.016 91.7864 94.999 91.8007 94.9821 91.8152C94.152 92.5112 93.027 92.9314 91.9466 92.9294C91.9267 92.9294 91.9069 92.9294 91.887 92.9294C91.8326 92.9295 91.7781 92.9295 91.7237 92.9294C91.6641 92.9294 91.6045 92.9294 91.545 92.9295C91.44 92.9295 91.3351 92.9295 91.2302 92.9295C91.0727 92.9294 90.9151 92.9295 90.7576 92.9295C90.4879 92.9296 90.2182 92.9296 89.9485 92.9296C89.6736 92.9296 89.3987 92.9296 89.1239 92.9296C89.1064 92.9296 89.089 92.9296 89.0711 92.9296C88.9822 92.9296 88.8933 92.9297 88.8043 92.9297C88.1544 92.9298 87.5045 92.9298 86.8546 92.9298C86.1957 92.9299 85.5367 92.9299 84.8778 92.93C84.8358 92.93 84.7938 92.93 84.7519 92.93C84.5826 92.93 84.4133 92.93 84.244 92.93C82.3813 92.9303 80.5186 92.9304 78.6559 92.9304C78.6323 92.9304 78.6088 92.9304 78.5845 92.9304C78.4653 92.9304 78.3461 92.9304 78.2269 92.9304C77.2285 92.9305 76.2301 92.9305 75.2316 92.9306C74.7536 92.9306 74.2755 92.9306 73.7974 92.9307C73.7737 92.9307 73.7499 92.9307 73.7254 92.9307C72.5811 92.9307 71.4367 92.9308 70.2924 92.9309C70.2558 92.9309 70.2558 92.9308 70.2184 92.9309C68.6627 92.9309 67.1069 92.931 65.5511 92.931C65.4235 92.931 65.2959 92.931 65.1684 92.931C64.9639 92.931 64.7593 92.931 64.5548 92.931C64.5295 92.931 64.5041 92.931 64.478 92.931C64.4268 92.931 64.3756 92.931 64.3244 92.931C63.9651 92.931 63.6058 92.931 63.2465 92.931C63.1179 92.931 62.9893 92.931 62.8608 92.931C60.4325 92.9311 58.0042 92.9311 55.5759 92.9314C55.5503 92.9314 55.5247 92.9314 55.4984 92.9314C54.6997 92.9315 53.9009 92.9315 53.1022 92.9316C52.2826 92.9317 51.463 92.9318 50.6435 92.9319C50.6056 92.9319 50.6056 92.9319 50.567 92.9319C48.9868 92.932 47.4065 92.9321 45.8263 92.9322C45.8019 92.9322 45.7775 92.9322 45.7524 92.9322C44.6806 92.9322 43.6088 92.9322 42.5371 92.9322C42.1059 92.9322 41.6748 92.9322 41.2436 92.9322C41.1721 92.9322 41.1006 92.9322 41.0291 92.9322C39.9355 92.9323 38.8418 92.9323 37.7481 92.9324C37.7245 92.9324 37.7009 92.9324 37.6766 92.9324C37.2971 92.9325 36.9176 92.9326 36.5382 92.9326C35.461 92.9328 34.3838 92.9329 33.3066 92.9329C33.2738 92.9329 33.2738 92.9329 33.2404 92.9329C32.7636 92.9328 32.2868 92.9328 31.8101 92.9328C31.6199 92.9328 31.4298 92.9328 31.2397 92.9327C31.2189 92.9327 31.1982 92.9327 31.1768 92.9327C30.5188 92.9327 29.8608 92.9328 29.2028 92.933C28.5549 92.9331 27.9071 92.9332 27.2592 92.933C27.1705 92.933 27.0817 92.9329 26.993 92.9329C26.9669 92.9329 26.9669 92.9329 26.9403 92.9329C26.6665 92.9329 26.3926 92.9329 26.1188 92.9331C25.8508 92.9332 25.5828 92.9332 25.3148 92.9331C25.1585 92.933 25.0023 92.933 24.846 92.9332C24.7423 92.9333 24.6386 92.9333 24.5349 92.9331C24.4763 92.933 24.4178 92.933 24.3592 92.9332C23.1443 92.9365 21.9981 92.5485 21.054 91.7721C21.0418 91.7621 21.0418 91.7621 21.0293 91.7519C20.9008 91.6458 20.782 91.53 20.6643 91.412C20.6572 91.405 20.6502 91.3979 20.6429 91.3907C20.546 91.2938 20.4576 91.1923 20.3725 91.0848C20.3499 91.0582 20.3272 91.0317 20.3045 91.0052C20.1489 90.817 20.0133 90.6108 19.894 90.3974C19.8873 90.3855 19.8806 90.3736 19.8737 90.3614C19.4607 89.6249 19.2088 88.7872 19.2106 87.9366C19.2106 87.9195 19.2106 87.9023 19.2106 87.8847C19.2105 87.8375 19.2106 87.7903 19.2106 87.743C19.2106 87.6913 19.2106 87.6395 19.2106 87.5878C19.2105 87.4967 19.2105 87.4056 19.2105 87.3145C19.2106 87.1778 19.2105 87.041 19.2105 86.9043C19.2104 86.6702 19.2104 86.436 19.2104 86.2019C19.2104 85.9633 19.2104 85.7247 19.2104 85.4861C19.2104 85.471 19.2104 85.4559 19.2104 85.4403C19.2104 85.3631 19.2103 85.2859 19.2103 85.2087C19.2102 84.6445 19.2102 84.0803 19.2102 83.5161C19.2102 82.9441 19.2101 82.3721 19.21 81.8001C19.21 81.7637 19.21 81.7272 19.21 81.6908C19.21 81.5438 19.21 81.3968 19.21 81.2498C19.2097 79.6328 19.2096 78.0157 19.2096 76.3987C19.2096 76.3782 19.2096 76.3578 19.2096 76.3367C19.2096 76.2332 19.2096 76.1298 19.2096 76.0263C19.2095 75.1595 19.2095 74.2927 19.2094 73.4259C19.2094 73.0108 19.2094 72.5958 19.2093 72.1807C19.2093 72.1601 19.2093 72.1394 19.2093 72.1181C19.2093 71.1246 19.2092 70.1311 19.2092 69.1375C19.2092 69.1163 19.2092 69.0951 19.2092 69.0733C19.2091 67.7225 19.2091 66.3718 19.209 65.021C19.209 64.9103 19.209 64.7996 19.209 64.6888C19.209 64.5112 19.209 64.3337 19.209 64.1561C19.209 64.1341 19.209 64.1121 19.209 64.0895C19.209 64.045 19.209 64.0005 19.209 63.9561C19.209 63.6441 19.209 63.3322 19.209 63.0202C19.209 62.9086 19.209 62.797 19.209 62.6854C19.209 60.5773 19.2089 58.4692 19.2086 56.3611C19.2086 56.3389 19.2086 56.3167 19.2086 56.2938C19.2086 55.6004 19.2085 54.907 19.2084 54.2136C19.2083 53.5022 19.2082 52.7907 19.2082 52.0792C19.2082 52.0573 19.2081 52.0354 19.2081 52.0129C19.208 50.6409 19.2079 49.269 19.2079 47.8971C19.2078 47.8759 19.2078 47.8547 19.2078 47.8329C19.2078 46.9023 19.2078 45.9717 19.2078 45.0412C19.2078 44.6668 19.2078 44.2924 19.2078 43.9181C19.2078 43.856 19.2078 43.7939 19.2078 43.7319C19.2078 42.7824 19.2077 41.8329 19.2076 40.8834C19.2076 40.8629 19.2076 40.8425 19.2076 40.8214C19.2075 40.492 19.2075 40.1626 19.2074 39.8332C19.2073 38.8981 19.2071 37.963 19.2072 37.0279C19.2072 37.0089 19.2072 36.99 19.2072 36.9704C19.2072 36.5564 19.2072 36.1424 19.2073 35.7285C19.2073 35.5633 19.2073 35.3982 19.2073 35.2331C19.2073 35.2151 19.2073 35.1971 19.2073 35.1785C19.2073 34.6074 19.2072 34.0363 19.2071 33.4651C19.2069 32.9026 19.2069 32.3402 19.207 31.7777C19.2071 31.7006 19.2071 31.6235 19.2071 31.5464C19.2071 31.5314 19.2071 31.5163 19.2071 31.5007C19.2072 31.2631 19.2071 31.0254 19.2069 30.7878C19.2068 30.5551 19.2068 30.3224 19.207 30.0897C19.2071 29.9541 19.2071 29.8185 19.2069 29.6829C19.2067 29.5928 19.2068 29.5027 19.2069 29.4126C19.207 29.3618 19.2071 29.311 19.2069 29.2602C19.2036 28.044 19.587 26.8497 20.3725 25.9158C20.3838 25.9017 20.3952 25.8875 20.4069 25.8729C20.5049 25.7523 20.6124 25.6414 20.7214 25.531C20.7287 25.5235 20.7361 25.516 20.7436 25.5083C20.8422 25.4081 20.9442 25.3163 21.054 25.2284C21.071 25.2142 21.088 25.1998 21.1049 25.1854C21.918 24.5036 23.0368 24.0688 24.0982 24.0712Z" fill="#2BBBDD"/>
<path d="M57.8637 45.2029C57.8792 45.2028 57.8946 45.2027 57.9105 45.2026C57.96 45.2023 58.0095 45.2022 58.059 45.2022C58.0759 45.2022 58.0928 45.2022 58.1102 45.2021C58.3568 45.2023 58.5972 45.2093 58.8411 45.2497C58.8554 45.2519 58.8696 45.2541 58.8844 45.2564C58.9816 45.2713 59.0782 45.2886 59.1746 45.3082C59.1859 45.3105 59.1972 45.3128 59.2089 45.3152C59.5916 45.3952 59.9717 45.5416 60.3201 45.7177C60.3332 45.7243 60.3463 45.7308 60.3598 45.7375C60.7471 45.9318 61.113 46.1773 61.4303 46.4746C61.4597 46.502 61.4894 46.5281 61.5199 46.5541C61.6582 46.6757 61.7878 46.8089 61.9012 46.9543C61.9275 46.9875 61.9552 47.0184 61.9839 47.0495C62.0399 47.1124 62.089 47.1795 62.138 47.2479C62.1453 47.2581 62.1527 47.2683 62.1602 47.2788C62.2804 47.4483 62.3921 47.624 62.5052 47.7983C62.6105 47.9606 62.7163 48.1223 62.8231 48.2835C62.9038 48.4053 62.9838 48.5275 63.0624 48.6507C63.2134 48.8872 63.367 49.122 63.5224 49.3557C63.5691 49.4261 63.6154 49.4966 63.6602 49.5683C63.7208 49.6648 63.784 49.7595 63.8471 49.8543C63.9481 50.0063 64.0484 50.1584 64.1443 50.3137C64.2092 50.4183 64.2772 50.5207 64.3453 50.6232C64.4211 50.7374 64.4959 50.8521 64.5704 50.9672C64.6454 51.083 64.7207 51.1985 64.7969 51.3135C64.8039 51.3241 64.811 51.3347 64.8182 51.3457C64.8522 51.397 64.8863 51.4482 64.9204 51.4995C64.9978 51.6159 65.0726 51.7338 65.1459 51.8529C65.1808 51.9094 65.2168 51.9651 65.2537 52.0202C65.2682 52.0421 65.2828 52.0639 65.2973 52.0858C65.3056 52.0982 65.3138 52.1107 65.3224 52.1234C65.3789 52.2085 65.4354 52.2935 65.4918 52.3787C65.5122 52.4095 65.5327 52.4403 65.5532 52.4712C65.6259 52.5807 65.6967 52.6911 65.7656 52.8031C65.8111 52.877 65.858 52.9498 65.9062 53.022C65.9235 53.048 65.9407 53.074 65.958 53.1C65.9674 53.1142 65.9769 53.1284 65.9866 53.1431C66.0511 53.2401 66.1156 53.3371 66.1799 53.4342C66.1869 53.4448 66.1938 53.4553 66.201 53.4661C66.2857 53.5941 66.3693 53.7226 66.45 53.8532C66.5135 53.9556 66.58 54.0559 66.6467 54.1562C66.7337 54.2874 66.8199 54.4192 66.9058 54.5512C66.9129 54.5621 66.92 54.573 66.9273 54.5842C66.9703 54.6503 67.0133 54.7165 67.0563 54.7826C67.089 54.8328 67.1217 54.8831 67.1544 54.9333C67.1918 54.9909 67.2293 55.0484 67.2667 55.106C67.354 55.2402 67.4414 55.3743 67.5288 55.5085C67.6314 55.6658 67.7339 55.8232 67.8362 55.9808C67.9434 56.146 68.0508 56.3111 68.1582 56.4762C68.1653 56.4871 68.1723 56.4979 68.1796 56.5091C68.2733 56.653 68.3677 56.7965 68.4627 56.9397C68.5486 57.0691 68.6326 57.1996 68.7151 57.3313C68.7955 57.4594 68.8788 57.5854 68.9626 57.7113C69.0116 57.7849 69.0604 57.8586 69.1091 57.9323C69.1255 57.957 69.1418 57.9816 69.1581 58.0062C69.2174 58.0958 69.2759 58.1859 69.3335 58.2766C69.3925 58.3694 69.4523 58.4617 69.5122 58.5539C69.518 58.5629 69.5238 58.5718 69.5298 58.5811C69.6286 58.7332 69.7283 58.8848 69.8288 59.0358C69.8859 59.1219 69.9421 59.2086 69.9975 59.2958C70.0631 59.399 70.13 59.5013 70.1969 59.6037C70.2369 59.6648 70.2768 59.7259 70.3167 59.7871C70.3247 59.7994 70.3328 59.8117 70.3411 59.8245C70.418 59.9423 70.4948 60.0602 70.5716 60.1782C70.5778 60.1878 70.5841 60.1974 70.5905 60.2072C70.6541 60.3051 70.7177 60.4029 70.7811 60.5009C70.8901 60.6694 70.9999 60.8374 71.1109 61.0046C71.1996 61.1382 71.2863 61.273 71.3716 61.4089C71.4337 61.5077 71.4976 61.6052 71.5621 61.7025C71.6338 61.8107 71.7048 61.9195 71.7757 62.0283C71.8149 62.0884 71.8541 62.1485 71.8933 62.2087C71.9014 62.2211 71.9095 62.2336 71.9179 62.2465C72.0004 62.3729 72.0829 62.4993 72.1655 62.6257C72.4062 62.9943 72.6465 63.3632 72.8866 63.7323C73.0004 63.9073 73.1145 64.0821 73.2285 64.257C73.3315 64.4147 73.4342 64.5725 73.5367 64.7304C73.6519 64.9079 73.7676 65.085 73.8833 65.2622C73.9835 65.4155 74.0835 65.569 74.183 65.7229C74.2714 65.8597 74.361 65.9957 74.4509 66.1314C74.5201 66.2358 74.5888 66.3405 74.6561 66.4461C74.749 66.5917 74.8435 66.7363 74.9376 66.8811C74.9755 66.9393 75.0134 66.9976 75.0512 67.0558C75.0832 67.1051 75.1152 67.1544 75.1472 67.2037C75.1536 67.2135 75.16 67.2232 75.1665 67.2333C75.2602 67.3774 75.3548 67.5209 75.4498 67.6641C75.537 67.7956 75.622 67.9284 75.7062 68.0619C75.7805 68.1795 75.8567 68.2957 75.9337 68.4116C76.0087 68.5246 76.0829 68.6382 76.1568 68.7521C76.1625 68.7609 76.1682 68.7697 76.1741 68.7787C76.2036 68.8242 76.233 68.8696 76.2625 68.9151C76.3257 69.0125 76.3889 69.1099 76.4522 69.2073C76.4586 69.217 76.4649 69.2268 76.4715 69.2369C76.5713 69.3904 76.6719 69.5434 76.7732 69.6959C76.8372 69.7922 76.9 69.8893 76.9624 69.9867C77.0286 70.0902 77.0957 70.1932 77.1629 70.2962C77.1992 70.3519 77.2356 70.4077 77.2719 70.4634C77.2792 70.4746 77.2865 70.4858 77.2941 70.4974C77.3557 70.592 77.4173 70.6867 77.4788 70.7814C77.5302 70.8606 77.5816 70.9398 77.6331 71.019C77.6394 71.0287 77.6458 71.0385 77.6524 71.0486C77.7006 71.1229 77.7488 71.1971 77.7971 71.2712C77.8041 71.2819 77.811 71.2926 77.8182 71.3036C77.9301 71.4755 78.0431 71.6467 78.1565 71.8176C78.2394 71.9426 78.321 72.0683 78.4 72.1959C78.4575 72.2888 78.5176 72.3799 78.5781 72.4709C78.6556 72.5876 78.7321 72.7049 78.8085 72.8224C78.8149 72.8323 78.8214 72.8422 78.828 72.8524C78.8874 72.9438 78.9469 73.0353 79.0063 73.1268C79.0449 73.1862 79.0834 73.2456 79.122 73.305C79.1283 73.3147 79.1346 73.3244 79.1411 73.3344C79.2404 73.4871 79.3404 73.6392 79.4413 73.7909C79.5051 73.887 79.5677 73.9838 79.6299 74.081C79.6982 74.1877 79.7674 74.2936 79.8367 74.3996C79.8938 74.487 79.9507 74.5746 80.0076 74.6621C80.0233 74.6863 80.039 74.7104 80.0547 74.7346C80.229 75.0033 80.3835 75.2846 80.5041 75.582C80.5084 75.5927 80.5128 75.6034 80.5173 75.6145C80.7017 76.072 80.8152 76.5387 80.8666 77.0298C80.868 77.0423 80.8694 77.0548 80.8708 77.0677C80.8864 77.2236 80.8846 77.3806 80.8847 77.5371C80.8847 77.5525 80.8847 77.5678 80.8848 77.5836C80.8847 77.799 80.8788 78.0091 80.8435 78.222C80.8377 78.2576 80.8328 78.2932 80.8281 78.3289C80.6986 79.285 80.2401 80.2195 79.6051 80.9347C79.5927 80.9488 79.5803 80.963 79.5675 80.9775C79.4151 81.1484 79.2566 81.3191 79.0768 81.461C79.037 81.4925 78.999 81.5256 78.9607 81.559C78.7429 81.7417 78.5026 81.891 78.2566 82.0316C78.2467 82.0373 78.2369 82.0429 78.2268 82.0488C77.7512 82.3224 77.217 82.4874 76.6806 82.5846C76.6574 82.5889 76.6574 82.5889 76.6338 82.5932C76.2743 82.6543 75.911 82.6501 75.5478 82.6495C75.4712 82.6495 75.3946 82.6496 75.318 82.6496C75.1834 82.6497 75.0489 82.6497 74.9144 82.6496C74.713 82.6495 74.5116 82.6496 74.3103 82.6497C73.967 82.6498 73.6237 82.6498 73.2805 82.6497C72.9327 82.6496 72.5849 82.6496 72.2371 82.6497C72.2262 82.6497 72.2152 82.6497 72.2039 82.6497C72.1032 82.6497 72.0026 82.6497 71.9019 82.6497C71.6496 82.6498 71.3973 82.6498 71.1449 82.6498C71.1276 82.6498 71.1276 82.6498 71.1099 82.6498C70.5404 82.6499 69.9708 82.6499 69.4013 82.6498C69.3764 82.6498 69.3514 82.6498 69.3265 82.6498C69.3141 82.6498 69.3018 82.6498 69.289 82.6498C69.126 82.6498 68.963 82.6498 68.8 82.6497C68.7875 82.6497 68.7751 82.6497 68.7622 82.6497C68.1846 82.6497 67.6069 82.6497 67.0292 82.6497C66.9662 82.6497 66.9032 82.6497 66.8401 82.6497C66.6501 82.6497 66.4601 82.6498 66.2701 82.6498C65.6907 82.6498 65.1113 82.6498 64.5319 82.6498C64.519 82.6498 64.5061 82.6498 64.4928 82.6498C63.6575 82.6498 62.8222 82.6498 61.9869 82.6497C61.9736 82.6497 61.9602 82.6497 61.9465 82.6497C61.4999 82.6497 61.0533 82.6497 60.6067 82.6496C59.2562 82.6495 57.9058 82.6495 55.4939 82.6496C55.0474 82.6497 54.6009 82.6497 54.1544 82.6497C54.141 82.6497 54.1277 82.6497 54.114 82.6497C53.2791 82.6498 52.4441 82.6498 51.6092 82.6498C51.5899 82.6498 51.5899 82.6498 51.5702 82.6498C50.9911 82.6498 50.4121 82.6498 49.833 82.6498C49.6431 82.6498 49.4532 82.6497 49.2633 82.6497C49.2003 82.6497 49.1373 82.6497 49.0743 82.6497C48.4966 82.6497 47.9189 82.6497 47.3412 82.6497C47.3288 82.6497 47.3163 82.6497 47.3035 82.6497C47.1406 82.6498 46.9776 82.6498 46.8147 82.6498C46.7962 82.6498 46.7962 82.6498 46.7773 82.6498C46.7524 82.6498 46.7274 82.6498 46.7025 82.6498C46.1337 82.6499 45.565 82.6499 44.9962 82.6498C44.9847 82.6498 44.9731 82.6498 44.9612 82.6498C44.7093 82.6498 44.4575 82.6498 44.2056 82.6497C44.1051 82.6497 44.0047 82.6497 43.9042 82.6497C43.8878 82.6497 43.8878 82.6497 43.871 82.6497C43.5237 82.6496 43.1763 82.6496 42.829 82.6497C42.4774 82.6498 42.1258 82.6498 41.7743 82.6496C41.5743 82.6495 41.3744 82.6495 41.1744 82.6497C41.0416 82.6497 40.9088 82.6497 40.7759 82.6496C40.7007 82.6495 40.6254 82.6495 40.5501 82.6496C39.9735 82.6504 39.9735 82.6504 39.7011 82.6166C39.6813 82.6142 39.6813 82.6142 39.6612 82.6117C38.6374 82.4865 37.6721 82.0345 36.9169 81.3261C36.8749 81.2868 36.8321 81.2483 36.7893 81.2098C36.7355 81.1605 36.6862 81.1103 36.6395 81.0542C36.6128 81.0227 36.585 80.9924 36.5568 80.9622C36.4625 80.8604 36.3769 80.7533 36.2936 80.6422C36.2864 80.6328 36.2793 80.6235 36.2719 80.6138C35.9164 80.1447 35.6564 79.6052 35.4796 79.044C35.4689 79.0099 35.4578 78.976 35.4467 78.942C35.1804 78.1058 35.1943 77.1748 35.3946 76.3278C35.3976 76.3148 35.4006 76.3017 35.4037 76.2883C35.54 75.7079 35.8014 75.1607 36.1297 74.667C36.1678 74.6097 36.2054 74.5521 36.243 74.4944C36.2501 74.4835 36.2572 74.4726 36.2646 74.4614C36.2872 74.4266 36.3099 74.3919 36.3325 74.3571C36.3487 74.3324 36.3648 74.3077 36.3809 74.2829C36.4929 74.1111 36.6048 73.9392 36.7167 73.7672C36.8035 73.6338 36.8904 73.5004 36.9773 73.367C37.0854 73.2011 37.1935 73.0351 37.3013 72.869C37.4439 72.6493 37.5869 72.4299 37.7299 72.2105C37.7928 72.114 37.8557 72.0175 37.9185 71.921C37.9532 71.8678 37.988 71.8145 38.0227 71.7612C38.0366 71.7398 38.0505 71.7185 38.0644 71.6972C38.1478 71.5692 38.1478 71.5692 38.1686 71.5372C38.1825 71.5159 38.1964 71.4946 38.2103 71.4732C38.245 71.42 38.2797 71.3668 38.3143 71.3135C38.3776 71.2165 38.4408 71.1194 38.504 71.0224C38.5396 70.9676 38.5752 70.9128 38.6108 70.8581C38.6178 70.8474 38.6247 70.8367 38.6319 70.8258C38.7305 70.6743 38.8299 70.5234 38.9299 70.3728C39.0028 70.2628 39.0739 70.152 39.1434 70.0398C39.2389 69.8862 39.3399 69.7362 39.4401 69.5857C39.4836 69.5202 39.5271 69.4547 39.5706 69.3892C39.576 69.381 39.5815 69.3728 39.5871 69.3643C39.677 69.2284 39.7648 69.0912 39.8518 68.9533C39.9115 68.8589 39.9721 68.7653 40.0339 68.6724C40.1113 68.5559 40.1876 68.4387 40.2638 68.3216C40.271 68.3106 40.2781 68.2996 40.2855 68.2883C40.3225 68.2315 40.3594 68.1748 40.3963 68.1181C40.4597 68.0207 40.5232 67.9233 40.5866 67.8259C40.6213 67.7726 40.656 67.7194 40.6907 67.6662C40.7046 67.6448 40.7185 67.6235 40.7324 67.6022C40.7427 67.5864 40.7427 67.5864 40.7532 67.5702C41.1493 66.9623 41.1493 66.9623 41.1701 66.9304C41.184 66.909 41.1979 66.8877 41.2118 66.8664C41.2465 66.8131 41.2812 66.7598 41.316 66.7065C41.3787 66.6103 41.4414 66.514 41.504 66.4177C41.5389 66.364 41.5738 66.3104 41.6087 66.2567C41.6156 66.2462 41.6224 66.2357 41.6294 66.2248C41.7063 66.1067 41.7835 65.9888 41.8613 65.8714C41.8685 65.8606 41.8756 65.8498 41.8829 65.8388C41.9167 65.7878 41.9505 65.7369 41.9844 65.6861C42.0545 65.5806 42.1226 65.474 42.1891 65.3661C42.2298 65.2999 42.2714 65.2344 42.3147 65.1699C42.3292 65.148 42.3438 65.1261 42.3583 65.1042C42.3666 65.0918 42.3748 65.0794 42.3834 65.0666C42.4399 64.9816 42.4964 64.8965 42.5528 64.8114C42.5732 64.7805 42.5937 64.7497 42.6142 64.7189C42.6869 64.6093 42.7577 64.4988 42.8267 64.3868C42.8718 64.3135 42.9184 64.2414 42.9663 64.1699C43.0577 64.0324 43.1481 63.8942 43.2382 63.7558C43.2453 63.7449 43.2523 63.734 43.2597 63.7228C43.2962 63.6667 43.3327 63.6105 43.3693 63.5544C43.4325 63.4572 43.4958 63.3601 43.5591 63.2629C43.5938 63.2097 43.6285 63.1564 43.6632 63.1032C43.6771 63.0819 43.691 63.0605 43.7049 63.0392C43.7152 63.0234 43.7152 63.0234 43.7257 63.0072C43.7883 62.9112 43.7883 62.9112 43.8091 62.8792C43.823 62.8579 43.8369 62.8366 43.8508 62.8152C43.8855 62.762 43.9202 62.7088 43.9548 62.6555C44.0181 62.5585 44.0813 62.4615 44.1445 62.3644C44.1801 62.3096 44.2157 62.2548 44.2513 62.2001C44.2583 62.1894 44.2652 62.1787 44.2724 62.1678C44.371 62.0162 44.4705 61.8653 44.5705 61.7147C44.6344 61.6183 44.6972 61.5215 44.7579 61.4231C44.8438 61.2841 44.9342 61.1483 45.0245 61.0121C45.1253 60.8602 45.2252 60.7077 45.3241 60.5545C45.3983 60.4398 45.4735 60.3258 45.5491 60.212C45.6221 60.102 45.6943 59.9916 45.7639 59.8793C45.8352 59.7642 45.9093 59.6511 45.9842 59.5384C46.0707 59.4081 46.1562 59.2772 46.2415 59.1462C46.2485 59.1354 46.2556 59.1246 46.2628 59.1134C46.299 59.0579 46.3351 59.0023 46.3712 58.9468C46.4136 58.8817 46.456 58.8167 46.4983 58.7516C46.5052 58.7411 46.5121 58.7306 46.5191 58.7197C46.5468 58.6773 46.5744 58.6349 46.6021 58.5924C46.6722 58.4848 46.7424 58.3771 46.8125 58.2694C46.8481 58.2146 46.8837 58.1598 46.9193 58.1051C46.9263 58.0944 46.9332 58.0838 46.9404 58.0728C47.0396 57.9203 47.1397 57.7684 47.2403 57.6168C47.3064 57.5172 47.371 57.417 47.4333 57.315C47.5245 57.1662 47.6229 57.0219 47.7196 56.8766C47.7643 56.8093 47.809 56.742 47.8537 56.6746C47.8592 56.6662 47.8648 56.6578 47.8705 56.6492C47.9382 56.547 48.0048 56.4443 48.0694 56.34C48.14 56.226 48.2134 56.114 48.2876 56.0023C48.3802 55.8628 48.4718 55.7226 48.5633 55.5823C48.5711 55.5704 48.5788 55.5584 48.5868 55.5461C48.6924 55.3843 48.7978 55.2223 48.9031 55.0603C48.9093 55.0509 48.9154 55.0415 48.9217 55.0318C48.9403 55.0032 48.959 54.9745 48.9776 54.9459C48.9838 54.9364 48.9899 54.9269 48.9963 54.9171C49.0289 54.8671 49.0614 54.817 49.094 54.7669C49.1358 54.7026 49.1776 54.6383 49.2194 54.5741C49.2263 54.5635 49.2332 54.5529 49.2403 54.542C49.3178 54.423 49.3955 54.3042 49.474 54.1858C49.4811 54.1751 49.4882 54.1643 49.4955 54.1532C49.5293 54.1024 49.563 54.0515 49.5969 54.0007C49.6667 53.8957 49.7345 53.7896 49.8007 53.6821C49.846 53.6085 49.8927 53.5361 49.9408 53.4644C50.0326 53.3264 50.1232 53.1875 50.2136 53.0485C50.3272 52.8737 50.4418 52.6994 50.557 52.5257C50.6475 52.3893 50.7369 52.2525 50.8231 52.1133C50.8734 52.0321 50.9256 51.9522 50.9785 51.8727C51.0569 51.7548 51.1341 51.6361 51.2113 51.5174C51.2259 51.4951 51.2404 51.4728 51.255 51.4504C51.2847 51.4048 51.3144 51.3592 51.3441 51.3136C51.4131 51.2075 51.4821 51.1015 51.5512 50.9955C51.5613 50.98 51.5613 50.98 51.5717 50.9641C51.6795 50.7985 51.7876 50.633 51.8956 50.4675C52.016 50.2832 52.1364 50.0988 52.2563 49.9142C52.2617 49.9058 52.2672 49.8974 52.2728 49.8887C52.3234 49.8108 52.374 49.7328 52.4246 49.6547C52.4624 49.5965 52.5003 49.5382 52.5381 49.48C52.5475 49.4655 52.5475 49.4655 52.5571 49.4508C52.6303 49.3381 52.7039 49.2257 52.7781 49.1137C52.7852 49.103 52.7923 49.0923 52.7996 49.0813C52.8335 49.0302 52.8674 48.9791 52.9014 48.9281C52.9717 48.8223 53.0401 48.7155 53.1067 48.6072C53.1523 48.5331 53.1993 48.4601 53.2477 48.3877C53.2649 48.3618 53.2821 48.3358 53.2994 48.3099C53.3088 48.2957 53.3183 48.2814 53.328 48.2668C53.3862 48.1794 53.4443 48.0919 53.5022 48.0043C53.5225 47.9737 53.5429 47.9431 53.5632 47.9126C53.6355 47.8036 53.7058 47.6937 53.7743 47.5822C53.8176 47.512 53.8624 47.4431 53.9102 47.3758C53.921 47.3605 53.921 47.3605 53.932 47.3449C54.0327 47.2034 54.138 47.0666 54.2552 46.9386C54.2819 46.9092 54.3077 46.8794 54.3334 46.8492C54.3985 46.7739 54.4682 46.7034 54.5382 46.6327C54.5509 46.6197 54.5637 46.6067 54.5768 46.5933C54.6645 46.5046 54.7564 46.4245 54.8536 46.3466C54.8711 46.332 54.8886 46.3173 54.906 46.3026C55.5065 45.802 56.2594 45.4448 57.0251 45.3002C57.0551 45.2941 57.0844 45.2867 57.1139 45.2786C57.1895 45.259 57.2666 45.2508 57.3439 45.2415C57.3586 45.2397 57.3732 45.2378 57.3882 45.2359C57.5467 45.2164 57.704 45.2036 57.8637 45.2029Z" fill="#FEFEFE"/>
<path d="M50.2136 27.7435C51.3094 27.7432 52.4053 27.743 53.5011 27.7428C53.5118 27.7428 53.5225 27.7428 53.5336 27.7428C54.6877 27.7425 55.8418 27.7423 60.4212 27.7416C60.4595 27.7416 60.4977 27.7416 60.5359 27.7416C61.6195 27.7415 62.7031 27.7414 63.7867 27.7413C63.8268 27.7413 63.8669 27.7412 63.907 27.7412C63.9269 27.7412 63.9269 27.7412 63.9471 27.7412C64.4452 27.7412 64.9433 27.7411 65.4414 27.7411C65.4955 27.7411 65.5496 27.7411 65.6037 27.7411C66.8809 27.7409 68.158 27.7408 69.4352 27.7405C69.4553 27.7405 69.4553 27.7405 69.4759 27.7405C69.9228 27.7404 70.3697 27.7403 70.8166 27.7402C71.2204 27.7401 71.6242 27.74 72.028 27.7399C72.0412 27.7399 72.0545 27.7399 72.0682 27.7399C72.8991 27.7397 73.7301 27.7396 74.5611 27.7395C74.5739 27.7395 74.5867 27.7395 74.6 27.7395C75.1638 27.7394 75.7276 27.7394 76.2915 27.7394C76.5183 27.7394 76.7452 27.7393 76.972 27.7393C77.0097 27.7393 77.0473 27.7393 77.0849 27.7393C77.66 27.7393 78.2352 27.7392 78.8103 27.739C78.8227 27.739 78.8351 27.739 78.8479 27.739C79.0473 27.739 79.2467 27.7389 79.4461 27.7388C80.0125 27.7387 80.5789 27.7385 81.1453 27.7385C81.1568 27.7385 81.1683 27.7385 81.1801 27.7385C81.4311 27.7385 81.6821 27.7385 81.9331 27.7385C82.0332 27.7385 82.1333 27.7385 82.2335 27.7385C82.2444 27.7385 82.2553 27.7385 82.2665 27.7385C82.6124 27.7385 82.9583 27.7384 83.3041 27.7382C83.6544 27.738 84.0047 27.738 84.355 27.7381C84.5541 27.7382 84.7532 27.7382 84.9523 27.7379C85.0847 27.7378 85.2171 27.7378 85.3495 27.738C85.4244 27.7381 85.4993 27.7381 85.5743 27.7379C85.9688 27.737 86.3648 27.7396 86.7518 27.8276C86.7775 27.8332 86.7775 27.8332 86.8037 27.8389C87.3986 27.9727 87.9701 28.2155 88.4646 28.5771C88.4727 28.583 88.4807 28.5888 88.489 28.5949C88.8046 28.8267 89.1095 29.0986 89.3491 29.4107C89.3611 29.4254 89.373 29.4401 89.3853 29.4553C89.5607 29.6725 89.7127 29.9088 89.8421 30.1566C89.8469 30.1655 89.8516 30.1745 89.8565 30.1837C90.1291 30.7007 90.2922 31.2711 90.3496 31.8531C90.3509 31.8661 90.3522 31.879 90.3535 31.8923C90.3662 32.0376 90.3661 32.1822 90.3658 32.328C90.3658 32.3562 90.3658 32.3845 90.3658 32.4128C90.3658 32.489 90.3657 32.5651 90.3656 32.6413C90.3655 32.7212 90.3655 32.801 90.3655 32.8808C90.3654 33.0318 90.3653 33.1827 90.3652 33.3336C90.365 33.5377 90.3649 33.7419 90.3648 33.946C90.3647 34.2672 90.3644 34.5885 90.3641 34.9097C90.8953 34.9097 91.4264 34.9097 91.9736 34.9097C91.9736 34.9146 91.9736 34.9194 91.9736 34.9244C90.9189 34.9247 89.8643 34.925 88.8096 34.9253C88.7992 34.9253 88.7889 34.9253 88.7783 34.9253C87.6675 34.9256 86.5566 34.9259 82.1486 34.9268C82.1118 34.9268 82.075 34.9268 82.0382 34.9268C80.9951 34.927 79.952 34.9272 78.9089 34.9273C78.8703 34.9273 78.8317 34.9273 78.7931 34.9273C78.7803 34.9273 78.7676 34.9273 78.7544 34.9273C78.275 34.9274 77.7955 34.9275 77.316 34.9276C77.2639 34.9276 77.2118 34.9276 77.1597 34.9276C75.9304 34.9278 74.701 34.928 73.4717 34.9284C73.4587 34.9284 73.4458 34.9284 73.4325 34.9284C73.0024 34.9285 72.5723 34.9287 72.1422 34.9288C71.7535 34.9289 71.3649 34.929 70.9763 34.9292C70.9571 34.9292 70.9571 34.9292 70.9376 34.9292C70.1377 34.9294 69.3379 34.9296 68.538 34.9297C68.5195 34.9297 68.5195 34.9297 68.5005 34.9297C67.9577 34.9298 67.4149 34.9298 66.8721 34.9299C66.6537 34.9299 66.4353 34.9299 66.2169 34.9299C66.1807 34.9299 66.1445 34.9299 66.1083 34.9299C65.5547 34.93 65.0011 34.9301 64.4475 34.9303C64.4355 34.9303 64.4236 34.9303 64.4113 34.9303C64.2194 34.9304 64.0275 34.9305 63.8356 34.9306C63.2905 34.9308 62.7454 34.931 62.2002 34.931C62.1836 34.931 62.1836 34.931 62.1667 34.931C61.925 34.931 61.6833 34.931 61.4417 34.931C61.3452 34.931 61.2488 34.931 61.1524 34.931C61.1419 34.931 61.1314 34.931 61.1206 34.931C60.7877 34.9309 60.4549 34.9311 60.122 34.9314C59.7848 34.9316 59.4476 34.9317 59.1104 34.9315C58.9188 34.9314 58.7273 34.9314 58.5357 34.9317C58.4082 34.9319 58.2807 34.9319 58.1532 34.9317C58.081 34.9316 58.0089 34.9316 57.9368 34.9318C57.3539 34.9336 56.7925 34.8716 56.2311 34.705C56.2214 34.7021 56.2116 34.6993 56.2015 34.6963C56.1107 34.6698 56.0232 34.6392 55.9357 34.6034C55.8999 34.5889 55.8641 34.5748 55.8282 34.5608C55.4277 34.4035 55.0535 34.1883 54.7086 33.9299C54.7008 33.924 54.6929 33.9181 54.6848 33.912C54.4045 33.7014 54.1419 33.4635 53.9111 33.1986C53.9012 33.1873 53.9012 33.1873 53.8911 33.1757C53.6976 32.9535 53.5344 32.7123 53.3734 32.4657C53.3075 32.3649 53.2406 32.2656 53.1695 32.1684C53.1232 32.104 53.08 32.0374 53.0366 31.971C52.9509 31.8407 52.8646 31.7109 52.7774 31.5816C52.7717 31.5732 52.766 31.5647 52.7601 31.556C52.7366 31.5211 52.7131 31.4863 52.6896 31.4514C52.627 31.3585 52.5646 31.2655 52.5021 31.1725C52.3991 31.019 52.296 30.8657 52.1929 30.7124C52.0833 30.5495 51.9738 30.3866 51.8644 30.2236C51.8024 30.1313 51.7404 30.0391 51.6783 29.9469C51.655 29.9123 51.6317 29.8777 51.6083 29.8431C51.6027 29.8347 51.597 29.8263 51.5912 29.8176C51.511 29.6986 51.4316 29.5791 51.3528 29.4592C51.2813 29.3505 51.2083 29.2431 51.1332 29.1369C51.0698 29.0469 51.0092 28.9552 50.9487 28.8632C50.8709 28.7448 50.7918 28.6273 50.7125 28.5098C50.62 28.3727 50.5286 28.2348 50.4378 28.0966C50.3732 27.9986 50.3065 27.9026 50.2372 27.808C50.2136 27.7727 50.2136 27.7727 50.2136 27.7435Z" fill="#BFD9DD"/>
<path d="M24.2614 24.0712C24.2938 24.0712 24.3263 24.0712 24.3587 24.0711C24.4464 24.0711 24.5341 24.0712 24.6218 24.0713C24.7136 24.0714 24.8053 24.0714 24.8971 24.0714C25.051 24.0715 25.205 24.0716 25.3589 24.0717C25.5173 24.0718 25.6758 24.0719 25.8343 24.072C25.8489 24.072 25.8489 24.072 25.8639 24.072C25.913 24.072 25.9621 24.0721 26.0112 24.0721C26.4178 24.0722 26.8244 24.0725 27.231 24.0728C27.231 24.0776 27.231 24.0825 27.231 24.0874C27.2177 24.0884 27.2045 24.0893 27.1908 24.0903C26.0028 24.1776 24.8857 24.5985 24.0063 25.4267C23.9737 25.4573 23.9406 25.4869 23.9069 25.5161C23.8196 25.5926 23.7395 25.6755 23.6643 25.7641C23.642 25.7903 23.6193 25.8163 23.5966 25.8422C23.4788 25.9769 23.3741 26.1192 23.2725 26.2666C23.2659 26.276 23.2594 26.2854 23.2527 26.2952C22.713 27.0787 22.3696 28.0588 22.3716 29.0183C22.3716 29.0354 22.3716 29.0525 22.3716 29.0702C22.3715 29.1175 22.3716 29.1648 22.3716 29.2121C22.3716 29.264 22.3716 29.3158 22.3716 29.3676C22.3715 29.4588 22.3715 29.55 22.3715 29.6413C22.3716 29.7782 22.3715 29.9152 22.3715 30.0522C22.3714 30.2867 22.3714 30.5212 22.3714 30.7557C22.3714 30.9947 22.3714 31.2337 22.3714 31.4726C22.3714 31.4878 22.3714 31.5029 22.3714 31.5185C22.3714 31.5959 22.3713 31.6732 22.3713 31.7505C22.3712 32.3156 22.3712 32.8807 22.3712 33.4458C22.3712 34.0187 22.3711 34.5916 22.371 35.1645C22.371 35.201 22.371 35.2376 22.371 35.2741C22.371 35.4213 22.371 35.5685 22.371 35.7157C22.3707 37.3353 22.3706 38.9549 22.3706 40.5746C22.3706 40.595 22.3706 40.6155 22.3706 40.6366C22.3706 40.7403 22.3706 40.8439 22.3706 40.9476C22.3705 41.8157 22.3705 42.6839 22.3704 43.552C22.3704 43.9677 22.3704 44.3835 22.3703 44.7992C22.3703 44.8198 22.3703 44.8405 22.3703 44.8618C22.3703 45.8569 22.3702 46.852 22.3702 47.8471C22.3702 47.8683 22.3702 47.8895 22.3702 47.9114C22.3701 49.2642 22.3701 50.6171 22.37 51.9699C22.37 52.0809 22.37 52.1918 22.37 52.3027C22.37 52.4805 22.37 52.6584 22.37 52.8362C22.37 52.8582 22.37 52.8803 22.37 52.903C22.37 52.9475 22.37 52.9921 22.37 53.0366C22.37 53.349 22.37 53.6615 22.37 53.9739C22.37 54.0857 22.37 54.1975 22.37 54.3093C22.37 56.4207 22.3699 58.5322 22.3696 60.6436C22.3696 60.6769 22.3696 60.6769 22.3696 60.711C22.3696 61.4055 22.3695 62.1 22.3694 62.7945C22.3693 63.5071 22.3692 64.2197 22.3692 64.9323C22.3692 64.9542 22.3691 64.9762 22.3691 64.9988C22.369 66.3728 22.3689 67.7469 22.3689 69.121C22.3689 69.1422 22.3688 69.1634 22.3688 69.1853C22.3688 70.1173 22.3688 71.0493 22.3688 71.9813C22.3688 72.3562 22.3688 72.7312 22.3688 73.1061C22.3688 73.1683 22.3688 73.2304 22.3688 73.2926C22.3688 74.2436 22.3687 75.1946 22.3686 76.1455C22.3686 76.1763 22.3686 76.1763 22.3686 76.2077C22.3685 76.5376 22.3685 76.8675 22.3684 77.1975C22.3683 78.1341 22.3681 79.0707 22.3682 80.0073C22.3682 80.0263 22.3682 80.0453 22.3682 80.0649C22.3682 80.4795 22.3682 80.8941 22.3683 81.3087C22.3683 81.4741 22.3683 81.6394 22.3683 81.8048C22.3683 81.8228 22.3683 81.8408 22.3683 81.8594C22.3683 82.4315 22.3682 83.0036 22.3681 83.5757C22.3679 84.139 22.3679 84.7024 22.368 85.2657C22.3681 85.3429 22.3681 85.4201 22.3681 85.4973C22.3681 85.52 22.3681 85.52 22.3681 85.5431C22.3682 85.7812 22.3681 86.0192 22.3679 86.2573C22.3678 86.4903 22.3678 86.7234 22.368 86.9564C22.3681 87.0923 22.3681 87.2281 22.3679 87.3639C22.3677 87.4541 22.3678 87.5444 22.3679 87.6346C22.368 87.6855 22.3681 87.7364 22.3679 87.7873C22.367 88.1256 22.3889 88.4616 22.455 88.7939C22.4587 88.8124 22.4623 88.831 22.4661 88.8501C22.5081 89.0579 22.568 89.26 22.6345 89.4611C22.6395 89.4764 22.6446 89.4918 22.6498 89.5075C22.9472 90.3892 23.5167 91.2111 24.244 91.7865C24.2526 91.7934 24.2613 91.8004 24.2702 91.8075C24.4943 91.9868 24.7312 92.1456 24.9832 92.2824C25.0134 92.2989 25.0433 92.3158 25.0733 92.3328C25.4834 92.5615 25.9322 92.7139 26.39 92.8102C26.4023 92.8129 26.4146 92.8155 26.4273 92.8182C26.6925 92.8736 26.9614 92.8924 27.231 92.9126C27.231 92.9174 27.231 92.9223 27.231 92.9272C26.8186 92.9283 26.4062 92.929 25.9938 92.9295C25.9448 92.9295 25.8959 92.9296 25.847 92.9297C25.8324 92.9297 25.8324 92.9297 25.8175 92.9297C25.6608 92.9299 25.504 92.9302 25.3473 92.9306C25.1859 92.9311 25.0246 92.9313 24.8632 92.9314C24.7728 92.9314 24.6824 92.9316 24.592 92.9319C23.2825 92.9364 22.084 92.6189 21.054 91.7719C21.0418 91.7619 21.0418 91.7619 21.0293 91.7517C20.9008 91.6455 20.782 91.5298 20.6643 91.4117C20.6572 91.4047 20.6502 91.3977 20.6429 91.3904C20.546 91.2935 20.4576 91.1921 20.3725 91.0845C20.3499 91.058 20.3272 91.0314 20.3045 91.005C20.1489 90.8167 20.0133 90.6105 19.894 90.3971C19.8873 90.3853 19.8806 90.3734 19.8737 90.3612C19.4607 89.6246 19.2088 88.7869 19.2106 87.9363C19.2106 87.9192 19.2106 87.9021 19.2106 87.8844C19.2105 87.8372 19.2106 87.79 19.2106 87.7428C19.2106 87.691 19.2106 87.6393 19.2106 87.5875C19.2105 87.4964 19.2105 87.4054 19.2105 87.3143C19.2106 87.1775 19.2105 87.0408 19.2105 86.904C19.2104 86.6699 19.2104 86.4358 19.2104 86.2017C19.2104 85.9631 19.2104 85.7245 19.2104 85.4859C19.2104 85.4707 19.2104 85.4556 19.2104 85.44C19.2104 85.3628 19.2103 85.2856 19.2103 85.2084C19.2102 84.6442 19.2102 84.08 19.2102 83.5158C19.2102 82.9438 19.2101 82.3719 19.21 81.7999C19.21 81.7634 19.21 81.727 19.21 81.6905C19.21 81.5435 19.21 81.3965 19.21 81.2496C19.2097 79.6325 19.2096 78.0155 19.2096 76.3984C19.2096 76.378 19.2096 76.3575 19.2096 76.3364C19.2096 76.233 19.2096 76.1295 19.2096 76.026C19.2095 75.1592 19.2095 74.2924 19.2094 73.4257C19.2094 73.0106 19.2094 72.5955 19.2093 72.1804C19.2093 72.1598 19.2093 72.1392 19.2093 72.1179C19.2093 71.1243 19.2092 70.1308 19.2092 69.1373C19.2092 69.1161 19.2092 69.0949 19.2092 69.073C19.2091 67.7223 19.2091 66.3715 19.209 65.0208C19.209 64.91 19.209 64.7993 19.209 64.6885C19.209 64.511 19.209 64.3334 19.209 64.1559C19.209 64.1339 19.209 64.1119 19.209 64.0892C19.209 64.0447 19.209 64.0003 19.209 63.9558C19.209 63.6439 19.209 63.3319 19.209 63.02C19.209 62.9084 19.209 62.7967 19.209 62.6851C19.209 60.577 19.2089 58.4689 19.2086 56.3608C19.2086 56.3386 19.2086 56.3164 19.2086 56.2936C19.2086 55.6002 19.2085 54.9068 19.2084 54.2134C19.2083 53.5019 19.2082 52.7904 19.2082 52.079C19.2082 52.0571 19.2081 52.0352 19.2081 52.0126C19.208 50.6407 19.2079 49.2687 19.2079 47.8968C19.2078 47.8756 19.2078 47.8544 19.2078 47.8326C19.2078 46.902 19.2078 45.9715 19.2078 45.0409C19.2078 44.6665 19.2078 44.2922 19.2078 43.9178C19.2078 43.8557 19.2078 43.7937 19.2078 43.7316C19.2078 42.7821 19.2077 41.8326 19.2076 40.8832C19.2076 40.8627 19.2076 40.8422 19.2076 40.8211C19.2075 40.4917 19.2075 40.1623 19.2074 39.833C19.2073 38.8979 19.2071 37.9628 19.2072 37.0277C19.2072 37.0087 19.2072 36.9897 19.2072 36.9702C19.2072 36.5562 19.2072 36.1422 19.2073 35.7282C19.2073 35.5631 19.2073 35.398 19.2073 35.2329C19.2073 35.2149 19.2073 35.1968 19.2073 35.1783C19.2073 34.6071 19.2072 34.036 19.2071 33.4648C19.2069 32.9024 19.2069 32.3399 19.207 31.7774C19.2071 31.7004 19.2071 31.6233 19.2071 31.5462C19.2071 31.5311 19.2071 31.516 19.2071 31.5005C19.2072 31.2628 19.2071 31.0252 19.2069 30.7875C19.2068 30.5548 19.2068 30.3221 19.207 30.0894C19.2071 29.9538 19.2071 29.8182 19.2069 29.6826C19.2067 29.5925 19.2068 29.5024 19.2069 29.4123C19.207 29.3615 19.2071 29.3107 19.2069 29.2599C19.2036 28.0438 19.587 26.8495 20.3725 25.9156C20.3838 25.9014 20.3952 25.8872 20.4069 25.8727C20.5049 25.752 20.6124 25.6412 20.7214 25.5307C20.7287 25.5233 20.7361 25.5158 20.7436 25.5081C20.8422 25.4079 20.9442 25.316 21.054 25.2282C21.071 25.2139 21.088 25.1996 21.1049 25.1852C21.8545 24.5566 22.8026 24.1943 23.7655 24.0874C23.7759 24.0862 23.7864 24.085 23.7972 24.0837C23.9516 24.0682 24.1064 24.0709 24.2614 24.0712Z" fill="#6ED3E4"/>
<path d="M88.914 34.9243C89.3293 34.9229 89.7447 34.9219 90.16 34.9213C90.2093 34.9212 90.2586 34.9211 90.3079 34.921C90.3227 34.921 90.3227 34.921 90.3377 34.921C90.4955 34.9208 90.6533 34.9203 90.8112 34.9197C90.9737 34.9192 91.1363 34.9189 91.2988 34.9188C91.3899 34.9187 91.4809 34.9185 91.572 34.9181C92.2298 34.9151 92.8391 34.9727 93.467 35.1875C93.4815 35.1925 93.4959 35.1974 93.5109 35.2025C94.0546 35.3916 94.56 35.6823 95.004 36.0504C95.0155 36.0599 95.0155 36.0599 95.0274 36.0697C95.2237 36.232 95.4175 36.4059 95.5832 36.6004C95.6055 36.6267 95.6282 36.6527 95.6509 36.6786C96.2357 37.3481 96.6169 38.1801 96.7911 39.0513C96.7945 39.0678 96.7979 39.0843 96.8014 39.1013C96.8874 39.5546 96.8807 40.0111 96.88 40.4705C96.8798 40.5627 96.88 40.6548 96.88 40.7469C96.8802 40.9382 96.8802 41.1294 96.8801 41.3206C96.8799 41.5151 96.8799 41.7097 96.8799 41.9043C96.88 41.9167 96.88 41.9291 96.88 41.9418C96.88 42.005 96.88 42.0682 96.88 42.1314C96.8802 42.5921 96.8802 43.0528 96.88 43.5135C96.8799 43.9803 96.8798 44.4471 96.8799 44.9139C96.8799 44.9287 96.8799 44.9434 96.8799 44.9586C96.8799 45.0936 96.88 45.2287 96.88 45.3637C96.88 45.7023 96.8801 46.0409 96.8801 46.3795C96.8801 46.3951 96.8801 46.4106 96.8801 46.4266C96.8802 47.191 96.8801 47.9554 96.8799 48.7198C96.8799 48.9888 96.8799 49.2578 96.8798 49.5268C96.8798 49.5519 96.8798 49.5519 96.8798 49.5775C96.8797 50.3528 96.8797 51.128 96.8797 51.9032C96.8797 51.9709 96.8797 52.0385 96.8797 52.1062C96.8797 52.3951 96.8797 52.6841 96.8797 52.973C96.8798 53.7334 96.8798 54.4938 96.8797 55.2541C96.8797 55.2714 96.8797 55.2888 96.8797 55.3066C96.8797 56.4275 96.8797 57.5484 96.8795 58.6693C96.8795 58.6872 96.8795 58.7051 96.8795 58.7235C96.8795 59.3228 96.8794 59.9221 96.8793 60.5214C96.8793 61.0694 96.8792 61.6174 96.8791 62.1654C96.8791 62.1836 96.8791 62.2017 96.8791 62.2204C96.879 63.9413 96.879 65.6623 96.879 67.3832C96.879 67.4743 96.879 67.5654 96.879 67.6565C96.879 67.6836 96.879 67.6836 96.879 67.7112C96.879 67.7476 96.879 67.784 96.8791 67.8204C96.8791 67.8568 96.8791 67.8932 96.8791 67.9296C96.8791 68.3287 96.8791 68.7277 96.8791 69.1268C96.8791 69.181 96.8791 69.2352 96.8791 69.2894C96.8791 70.3918 96.8791 71.4941 96.8791 72.5965C96.8791 72.6138 96.8791 72.6311 96.8791 72.6489C96.8791 73.4429 96.879 74.2369 96.879 75.0308C96.879 75.1159 96.879 75.201 96.8789 75.2861C96.8789 75.3029 96.8789 75.3198 96.8789 75.3371C96.8789 75.422 96.8789 75.5068 96.8789 75.5917C96.8789 75.6256 96.8789 75.6595 96.8789 75.6934C96.8789 75.7101 96.8789 75.7269 96.8789 75.7442C96.8789 75.8456 96.8789 75.947 96.8789 76.0484C96.8788 76.8067 96.8788 77.5651 96.8788 78.3235C96.8788 78.3402 96.8788 78.3569 96.8788 78.3742C96.8788 78.5594 96.8788 78.7445 96.8788 78.9297C96.8789 78.9968 96.8789 79.0638 96.8789 79.1308C96.8789 79.1474 96.8789 79.1639 96.8789 79.181C96.8789 79.9443 96.8789 80.7077 96.8788 81.4711C96.8788 81.4866 96.8788 81.5021 96.8788 81.5181C96.8787 81.856 96.8787 82.1939 96.8786 82.5318C96.8786 82.6666 96.8786 82.8014 96.8785 82.9361C96.8785 82.9508 96.8785 82.9655 96.8785 82.9807C96.8784 83.4469 96.8785 83.9132 96.8785 84.3794C96.8786 84.8385 96.8785 85.2976 96.8784 85.7567C96.8783 85.8197 96.8783 85.8826 96.8783 85.9455C96.8783 85.9639 96.8783 85.9639 96.8783 85.9828C96.8782 86.1768 96.8783 86.3708 96.8783 86.5648C96.8784 86.7547 96.8784 86.9447 96.8782 87.1346C96.8782 87.2356 96.8781 87.3367 96.8783 87.4378C96.8783 87.5296 96.8783 87.6214 96.8782 87.7132C96.8781 87.746 96.8781 87.7788 96.8782 87.8116C96.8788 88.1001 96.8618 88.3857 96.8128 88.6702C96.8081 88.6979 96.8081 88.6979 96.8033 88.7262C96.6509 89.593 96.2765 90.3871 95.729 91.0696C95.7111 91.0921 95.7111 91.0921 95.6929 91.1151C95.5937 91.2377 95.4834 91.3496 95.3728 91.4617C95.3651 91.4696 95.3574 91.4774 95.3495 91.4855C95.2488 91.5878 95.1451 91.682 95.033 91.7716C95.0159 91.7859 94.999 91.8002 94.982 91.8146C94.2325 92.4432 93.2844 92.8055 92.3215 92.9123C92.311 92.9136 92.3005 92.9148 92.2898 92.916C92.1353 92.9316 91.9806 92.9289 91.8256 92.9286C91.7931 92.9286 91.7606 92.9286 91.7282 92.9286C91.6405 92.9286 91.5528 92.9286 91.4652 92.9284C91.3734 92.9284 91.2816 92.9283 91.1898 92.9283C91.0359 92.9283 90.882 92.9282 90.7281 92.9281C90.5696 92.9279 90.4111 92.9278 90.2527 92.9278C90.238 92.9278 90.238 92.9278 90.223 92.9278C90.1739 92.9277 90.1248 92.9277 90.0757 92.9277C89.6691 92.9275 89.2625 92.9273 88.856 92.927C88.856 92.9221 88.856 92.9173 88.856 92.9123C88.8658 92.9118 88.8757 92.9112 88.8859 92.9106C90.0616 92.839 91.179 92.4038 92.0537 91.5997C92.0898 91.5665 92.1263 91.5338 92.1629 91.501C92.2713 91.4025 92.3719 91.2987 92.4665 91.1866C92.4779 91.1735 92.4893 91.1603 92.5011 91.1468C92.7489 90.8596 92.9569 90.5427 93.1335 90.2067C93.1386 90.197 93.1437 90.1873 93.1489 90.1773C93.3943 89.706 93.5557 89.2063 93.6527 88.6839C93.6556 88.6691 93.6584 88.6544 93.6613 88.6392C93.7129 88.3443 93.7178 88.0424 93.7171 87.7438C93.7171 87.7094 93.7172 87.675 93.7172 87.6407C93.7173 87.5566 93.7173 87.4726 93.7172 87.3886C93.7171 87.2868 93.7171 87.1849 93.7172 87.083C93.7173 86.8919 93.7173 86.7008 93.7172 86.5097C93.7172 86.3152 93.7171 86.1207 93.7172 85.9261C93.7172 85.9138 93.7172 85.9014 93.7172 85.8887C93.7172 85.8255 93.7172 85.7624 93.7173 85.6993C93.7174 85.2388 93.7174 84.7783 93.7173 84.3179C93.7172 83.8513 93.7172 83.3847 93.7173 82.918C93.7173 82.896 93.7173 82.896 93.7173 82.8734C93.7173 82.7385 93.7173 82.6035 93.7173 82.4686C93.7174 82.1302 93.7174 81.7918 93.7174 81.4534C93.7174 81.4302 93.7174 81.4302 93.7174 81.4065C93.7175 80.6424 93.7175 79.8783 93.7174 79.1143C93.7174 79.0808 93.7174 79.0473 93.7174 79.0139C93.7174 78.989 93.7174 78.989 93.7174 78.9636C93.7174 78.7449 93.7174 78.5262 93.7174 78.3075C93.7174 78.2824 93.7174 78.2824 93.7174 78.2568C93.7173 77.4819 93.7173 76.7071 93.7173 75.9322C93.7173 75.8477 93.7173 75.7632 93.7173 75.6786C93.7174 75.4238 93.7174 75.169 93.7174 74.9142C93.7174 74.1372 93.7174 73.3602 93.7174 72.5832C93.7174 72.5659 93.7174 72.5486 93.7174 72.5308C93.7174 71.4104 93.7174 70.2901 93.7173 69.1697C93.7173 69.1518 93.7173 69.1339 93.7173 69.1155C93.7173 68.5164 93.7173 67.9174 93.7172 67.3183C93.7171 65.5067 93.7171 63.6951 93.7172 60.4598C93.7173 59.8609 93.7173 59.2619 93.7173 58.663C93.7173 58.6451 93.7173 58.6272 93.7173 58.6088C93.7174 57.489 93.7174 56.3692 93.7174 55.2494C93.7174 55.2234 93.7174 55.2234 93.7174 55.197C93.7174 54.4204 93.7174 53.6439 93.7174 52.8673C93.7174 52.6127 93.7174 52.358 93.7173 52.1033C93.7173 52.0188 93.7173 51.9343 93.7173 51.8498C93.7173 51.075 93.7173 50.3001 93.7174 49.5252C93.7174 49.5085 93.7174 49.4918 93.7174 49.4746C93.7174 49.256 93.7174 49.0374 93.7174 48.8187C93.7174 48.8022 93.7174 48.7856 93.7174 48.7685C93.7174 48.7351 93.7174 48.7016 93.7174 48.6682C93.7175 47.9052 93.7175 47.1422 93.7174 46.3791C93.7174 46.3559 93.7174 46.3559 93.7174 46.3322C93.7174 45.9944 93.7174 45.6567 93.7173 45.3189C93.7173 45.1842 93.7173 45.0494 93.7173 44.9147C93.7173 44.8927 93.7173 44.8927 93.7173 44.8702C93.7172 44.4042 93.7172 43.9381 93.7173 43.4721C93.7174 43.0132 93.7174 42.5543 93.7172 42.0954C93.7172 42.0325 93.7172 41.9696 93.7172 41.9067C93.7172 41.8882 93.7172 41.8882 93.7172 41.8694C93.7171 41.6755 93.7172 41.4816 93.7173 41.2877C93.7173 41.0978 93.7173 40.908 93.7172 40.7181C93.7171 40.6171 93.7171 40.5161 93.7172 40.4151C93.7173 40.3233 93.7173 40.2315 93.7171 40.1397C93.7171 40.1069 93.7171 40.0741 93.7172 40.0414C93.7177 39.8211 93.7061 39.604 93.6845 39.3849C93.6834 39.3744 93.6824 39.364 93.6814 39.3532C93.5971 38.5105 93.2321 37.6592 92.7275 36.9864C92.7172 36.9726 92.7172 36.9726 92.7067 36.9586C92.6319 36.8592 92.5543 36.7633 92.4703 36.6716C92.4434 36.6419 92.4173 36.6118 92.3912 36.5813C92.3309 36.5115 92.2668 36.4458 92.2018 36.3804C92.1896 36.3681 92.1774 36.3558 92.1649 36.3431C92.0918 36.2702 92.0185 36.201 91.9373 36.1374C91.8973 36.1061 91.8595 36.0728 91.8212 36.0394C91.7045 35.9412 91.5783 35.8568 91.4515 35.7725C91.4417 35.766 91.432 35.7595 91.422 35.7529C90.6795 35.2609 89.8021 34.9733 88.914 34.9389C88.914 34.9341 88.914 34.9292 88.914 34.9243Z" fill="#2E96BB"/>
<path d="M58.068 54.0635C58.079 54.0635 58.0899 54.0636 58.1011 54.0636C58.5293 54.0656 58.9341 54.1976 59.2761 54.463C59.2965 54.4787 59.2965 54.4787 59.3174 54.4948C59.7306 54.8247 60.0146 55.3091 60.084 55.8392C60.0896 55.9183 60.0912 55.997 60.0917 56.0763C60.0918 56.0907 60.092 56.1052 60.0921 56.1201C60.0916 56.2412 60.0816 56.3607 60.0711 56.4813C60.0558 56.6603 60.0457 56.8397 60.0354 57.0191C60.0299 57.1161 60.0242 57.2132 60.0185 57.3102C60.0165 57.3437 60.0146 57.3772 60.0126 57.4106C59.9998 57.6298 59.9865 57.8489 59.973 58.068C59.9718 58.0869 59.9706 58.1058 59.9694 58.1253C59.9487 58.4592 59.9267 58.7931 59.9045 59.1269C59.8764 59.5481 59.8498 59.9693 59.824 60.3907C59.8089 60.6374 59.7933 60.884 59.7778 61.1307C59.7708 61.2422 59.7638 61.3536 59.7568 61.4651C59.756 61.4769 59.7553 61.4888 59.7545 61.501C59.7424 61.6948 59.7303 61.8887 59.7183 62.0826C59.7011 62.362 59.6835 62.6415 59.666 62.921C59.6425 63.2938 59.6191 63.6667 59.596 64.0396C59.5948 64.0577 59.5937 64.0759 59.5926 64.0946C59.5776 64.3357 59.5629 64.5767 59.5484 64.8179C59.541 64.9399 59.5337 65.0619 59.5263 65.184C59.5244 65.215 59.5225 65.246 59.5207 65.2771C59.4927 65.7412 59.4637 66.2053 59.4326 66.6692C59.4291 66.7213 59.4257 66.7734 59.4222 66.8255C59.4215 66.8356 59.4209 66.8456 59.4202 66.856C59.4089 67.0273 59.3993 67.1988 59.39 67.3702C59.3781 67.5913 59.3638 67.8122 59.3486 68.0331C59.3435 68.1077 59.3384 68.1824 59.3333 68.257C59.3314 68.2837 59.3314 68.2837 59.3296 68.3109C59.3229 68.4092 59.3164 68.5075 59.3104 68.6058C59.3091 68.6262 59.3079 68.6466 59.3066 68.6669C59.3045 68.7014 59.3024 68.7358 59.3005 68.7703C59.2775 69.1408 59.1343 69.4676 58.8556 69.7168C58.5772 69.9464 58.2386 70.0329 57.8841 70.0093C57.5632 69.972 57.2711 69.7821 57.063 69.5395C56.9077 69.3405 56.8168 69.112 56.7963 68.8601C56.7946 68.8394 56.7946 68.8394 56.7928 68.8183C56.7774 68.6307 56.7672 68.4428 56.7567 68.2549C56.7536 68.2005 56.7505 68.1461 56.7473 68.0917C56.7428 68.0122 56.7382 67.9328 56.7337 67.8533C56.7258 67.7131 56.7176 67.5729 56.7095 67.4327C56.7086 67.4174 56.7086 67.4174 56.7076 67.4018C56.7047 67.3506 56.7017 67.2994 56.6987 67.2482C56.6932 67.1552 56.6878 67.0622 56.6824 66.9692C56.6794 66.9174 56.6763 66.8656 56.6733 66.8138C56.6721 66.793 56.6709 66.7723 56.6697 66.7516C56.6691 66.7413 56.6685 66.7311 56.6679 66.7205C56.6081 65.6949 56.5483 64.6694 56.4286 62.6182C56.4274 62.5975 56.4262 62.5768 56.425 62.5561C56.422 62.5043 56.419 62.4525 56.4159 62.4007C56.4105 62.3073 56.4051 62.214 56.3996 62.1206C56.3966 62.0687 56.3935 62.0167 56.3905 61.9648C56.3899 61.9545 56.3893 61.9442 56.3887 61.9336C56.3804 61.791 56.3721 61.6483 56.3638 61.5056C56.3585 61.4146 56.3533 61.3235 56.348 61.2325C56.3474 61.2224 56.3468 61.2123 56.3462 61.2019C56.326 60.8551 56.3052 60.5082 56.2842 60.1614C56.2427 59.4785 56.2025 58.7955 56.1641 58.1123C56.1618 58.0721 56.1596 58.032 56.1573 57.9918C56.1545 57.941 56.1516 57.8902 56.1488 57.8394C56.1479 57.8242 56.1479 57.8242 56.147 57.8088C56.1402 57.6876 56.1334 57.5664 56.1267 57.4453C56.1208 57.3406 56.1149 57.2359 56.1091 57.1312C56.1075 57.104 56.1075 57.104 56.106 57.0762C56.0946 56.8742 56.0827 56.6723 56.0688 56.4705C56.0595 56.3353 56.0518 56.2009 56.0525 56.0653C56.0526 56.0478 56.0527 56.0302 56.0527 56.0122C56.0543 55.8852 56.0666 55.7703 56.1006 55.6476C56.1049 55.6292 56.1093 55.6109 56.1138 55.592C56.2179 55.1597 56.4748 54.7616 56.8256 54.4922C56.8331 54.4863 56.8407 54.4804 56.8485 54.4744C57.2073 54.1974 57.6163 54.0612 58.068 54.0635Z" fill="#39666C"/>
<path d="M59.1456 72.6421C59.2065 72.6928 59.2634 72.7471 59.3196 72.803C59.3382 72.8214 59.3382 72.8214 59.3571 72.8402C59.6965 73.1965 59.8391 73.6692 59.8317 74.1549C59.8162 74.6043 59.6052 75.0113 59.3051 75.3331C59.2934 75.3463 59.2934 75.3463 59.2815 75.3598C59.0982 75.5586 58.8453 75.6852 58.5946 75.7718C58.579 75.7775 58.579 75.7775 58.563 75.7832C58.1314 75.9352 57.6513 75.868 57.2437 75.6772C56.8078 75.4492 56.4847 75.0567 56.3326 74.5875C56.1943 74.1326 56.2444 73.6361 56.4613 73.2143C56.5562 73.0508 56.6651 72.9082 56.7966 72.7737C56.8088 72.7612 56.821 72.7488 56.8336 72.7359C57.4616 72.1274 58.4671 72.1125 59.1456 72.6421Z" fill="#39666C"/>
<path d="M26.8106 92.8833C26.9494 92.893 27.0882 92.9028 27.2311 92.9128C27.2311 92.9176 27.2311 92.9225 27.2311 92.9275C26.2454 92.9275 25.2597 92.9275 24.2441 92.9275C24.2441 92.9226 24.2441 92.9178 24.2441 92.9128C25.0911 92.9079 25.938 92.903 26.8106 92.898C26.8106 92.8932 26.8106 92.8883 26.8106 92.8833Z" fill="#5DCDE2"/>
</g>
<defs>
<filter id="filter0_i_155_232" x="19.2068" y="24.0674" width="80.6736" height="72.8657" filterUnits="userSpaceOnUse" color-interpolation-filters="sRGB">
<feFlood flood-opacity="0" result="BackgroundImageFix"/>
<feBlend mode="normal" in="SourceGraphic" in2="BackgroundImageFix" result="shape"/>
<feColorMatrix in="SourceAlpha" type="matrix" values="0 0 0 0 0 0 0 0 0 0 0 0 0 0 0 0 0 0 127 0" result="hardAlpha"/>
<feOffset dx="3" dy="4"/>
<feGaussianBlur stdDeviation="2"/>
<feComposite in2="hardAlpha" operator="arithmetic" k2="-1" k3="1"/>
<feColorMatrix type="matrix" values="0 0 0 0 0 0 0 0 0 0 0 0 0 0 0 0 0 0 0.25 0"/>
<feBlend mode="normal" in2="shape" result="effect1_innerShadow_155_232"/>
</filter>
</defs>
</svg>
